<?xml version="1.0" standalone="no"?>
<!DOCTYPE svg PUBLIC "-//W3C//DTD SVG 20010904//EN"
 "http://www.w3.org/TR/2001/REC-SVG-20010904/DTD/svg10.dtd">
<svg version="1.0" xmlns="http://www.w3.org/2000/svg"
 width="300.000000pt" height="300.000000pt" viewBox="0 0 300.000000 300.000000"
 preserveAspectRatio="xMidYMid meet">
<metadata>
Created by potrace 1.14, written by Peter Selinger 2001-2017
</metadata>
<g transform="translate(0.000000,300.000000) scale(0.100000,-0.100000)"
fill="#000000" stroke="none">
<path d="M1923 2573 c-17 -21 -41 -50 -54 -64 -31 -33 -88 -98 -164 -184 -33
-38 -100 -114 -150 -170 -95 -107 -197 -223 -255 -290 -19 -22 -37 -42 -40
-45 -3 -3 -55 -61 -115 -130 -60 -69 -124 -141 -142 -160 -17 -19 -41 -46 -53
-60 -35 -40 -133 -152 -155 -176 -17 -19 -58 -65 -148 -168 -10 -12 -44 -50
-75 -85 -67 -75 -71 -79 -142 -161 -73 -83 -75 -86 -147 -166 -62 -70 -70 -79
-149 -170 -24 -28 -62 -70 -84 -95 -22 -24 -40 -47 -40 -50 0 -12 1003 -9
1030 2 14 6 64 57 112 112 49 56 104 120 124 142 19 22 53 61 75 86 21 25 49
57 61 71 13 13 52 57 88 98 36 40 70 78 75 84 6 6 46 52 89 101 44 50 107 121
140 159 34 38 68 77 76 86 8 9 40 45 70 80 30 35 62 71 70 80 24 28 144 162
155 174 6 6 39 45 75 86 36 41 70 79 75 86 6 6 37 41 70 78 33 38 69 78 80 90
11 12 45 51 75 86 30 34 62 71 70 80 41 46 137 155 155 174 11 13 47 53 80 91
33 38 65 74 70 80 6 6 26 28 44 48 l35 37 -525 0 -525 0 -31 -37z"/>
<path d="M2418 1404 c-2 -1 -19 -5 -40 -8 -181 -28 -354 -186 -404 -369 -13
-47 -20 -179 -11 -217 35 -158 127 -280 268 -354 117 -63 248 -78 377 -45 102
26 166 63 243 140 199 200 199 497 -1 699 -70 71 -156 120 -245 141 -45 10
-181 20 -187 13z"/>
</g>
</svg>
