<svg width="200" height="75" viewBox="0 0 200 75" fill="none" xmlns="http://www.w3.org/2000/svg">
<path d="M113 0H165V17.25H113V0Z" fill="black"/>
<path d="M0 75V0H19.624V58.5938L60.5 58.5938V75H0Z" fill="black"/>
<path d="M96 37.5C96 45.6274 94.4198 52.4834 91.2595 58.068C88.0992 63.6288 83.834 67.847 78.4639 70.7224C73.0937 73.5742 67.1058 75 60.5 75C53.8467 75 47.835 73.5623 42.4649 70.6868C37.1185 67.7876 32.8651 63.5575 29.7048 57.9967C26.5683 52.4121 25 45.5799 25 37.5C25 29.3726 26.5683 22.5285 29.7048 16.9677C32.8651 11.3831 37.1185 7.16492 42.4649 4.31321C47.835 1.43774 53.8467 0 60.5 0C67.1058 0 73.0937 1.43774 78.4639 4.31321C83.834 7.16492 88.0992 11.3831 91.2595 16.9677C94.4198 22.5285 96 29.3726 96 37.5ZM75.6124 37.5C75.6124 33.1274 75.0303 29.4439 73.866 26.4496C72.7254 23.4316 71.0264 21.1502 68.7691 19.6055C66.5355 18.0371 63.7791 17.2529 60.5 17.2529C57.2209 17.2529 54.4526 18.0371 52.1953 19.6055C49.9617 21.1502 48.2627 23.4316 47.0984 26.4496C45.9578 29.4439 45.3876 33.1274 45.3876 37.5C45.3876 41.8726 45.9578 45.568 47.0984 48.586C48.2627 51.5803 49.9617 53.8617 52.1953 55.4301C54.4526 56.9748 57.2209 57.7472 60.5 57.7472C63.7791 57.7472 66.5355 56.9748 68.7691 55.4301C71.0264 53.8617 72.7254 51.5803 73.866 48.586C75.0303 45.568 75.6124 41.8726 75.6124 37.5Z" fill="black"/>
<path d="M200 37.5C200 45.6274 198.42 52.4834 195.26 58.068C192.099 63.6288 187.834 67.847 182.464 70.7224C177.094 73.5741 171.106 75 164.5 75C157.847 75 151.835 73.5623 146.465 70.6868C141.118 67.7875 136.865 63.5575 133.705 57.9967C130.568 52.4121 129 45.5798 129 37.5C129 29.3726 130.568 22.5285 133.705 16.9677C136.865 11.3831 141.118 7.16492 146.465 4.31321C151.835 1.43774 157.847 0 164.5 0C171.106 0 177.094 1.43774 182.464 4.31321C187.834 7.16492 192.099 11.3831 195.26 16.9677C198.42 22.5285 200 29.3726 200 37.5ZM179.612 37.5C179.612 33.1274 179.03 29.4439 177.866 26.4496C176.725 23.4316 175.026 21.1502 172.769 19.6055C170.535 18.0371 167.779 17.2528 164.5 17.2528C161.221 17.2528 158.453 18.0371 156.195 19.6055C153.962 21.1502 152.263 23.4316 151.098 26.4496C149.958 29.4439 149.388 33.1274 149.388 37.5C149.388 41.8726 149.958 45.568 151.098 48.586C152.263 51.5803 153.962 53.8617 156.195 55.4301C158.453 56.9748 161.221 57.7471 164.5 57.7471C167.779 57.7471 170.535 56.9748 172.769 55.4301C175.026 53.8617 176.725 51.5803 177.866 48.586C179.03 45.568 179.612 41.8726 179.612 37.5Z" fill="black"/>
<path d="M113 0.00486948C112.782 0.00162316 112.563 0 112.343 0C107.466 0 102.895 0.831748 98.6299 2.49525C94.3652 4.13498 90.6071 6.57082 87.3555 9.80276C84.104 13.0109 81.5592 16.9439 79.7214 21.6017C77.9071 26.2595 77 31.6065 77 37.6426C77 45.3422 78.4844 51.9843 81.4532 57.5689C84.4456 63.1535 88.6043 67.4548 93.9293 70.4729C99.2543 73.491 105.439 75 112.484 75C118.799 75 124.395 73.7524 129.272 71.2571C134.173 68.7381 138.014 65.1259 140.794 60.4206C143.598 55.6915 145 50 145 43.346V33.2224H112.909V47.3384H126.052C126 49.3755 125.507 51.1578 124.572 52.6854C123.582 54.3013 122.086 55.549 120.083 56.4282C118.104 57.3075 115.618 57.7471 112.626 57.7471C109.233 57.7471 106.394 56.9392 104.108 55.3232C101.823 53.7072 100.103 51.3783 98.948 48.3365C97.7935 45.2947 97.2162 41.635 97.2162 37.3574C97.2162 33.1274 97.817 29.5152 99.0187 26.5209C100.244 23.5266 102.011 21.2334 104.32 19.6412C106.653 18.049 109.468 17.2528 112.767 17.2528C112.845 17.2528 112.923 17.2519 113 17.2528V0.00486948Z" fill="black"/>
<path d="M144 25.0951H144.152C144.11 24.6866 144.059 24.2818 144 23.8808V25.0951Z" fill="black"/>
</svg>
